# xmcd
#
# Track frame offsets: 
#        150
#        14138
#        30826
#        42718
#        56531
#        69592
#        84202
#        96095
#        115483
#        128905
#
# Disc length: 1910 seconds
#
# Revision: 0
# Processed by: cddbd v1.5.2PL0 Copyright (c) Steve Scherf et al.
# Submitted via: ExactAudioCopy v1.0b1
#
DISCID=8307740a
DTITLE=Hilde Fjørtoft - Klassiske Pettersen Sanger
DYEAR=2008
DGENRE=Country
TTITLE0=På Veien Heim
TTITLE1=Du Va Gevinsten
TTITLE2=Den Gamle Spinnrokken
TTITLE3=Haustens Fargar
TTITLE4=Stille e Natta
TTITLE5=Gråtande Sky
TTITLE6=Gulle Gull
TTITLE7=Ei god Verd å Leva i
TTITLE8=Minna om Tårane
TTITLE9=Tåre På Eit Kinn
EXTD=
EXTT0=
EXTT1=
EXTT2=
EXTT3=
EXTT4=
EXTT5=
EXTT6=
EXTT7=
EXTT8=
EXTT9=
PLAYORDER=
